<svg width="544" height="67" viewBox="0 0 544 67" fill="none" xmlns="http://www.w3.org/2000/svg">
<g filter="url(#filter0_d)">
<mask id="mask0" mask-type="alpha" maskUnits="userSpaceOnUse" x="4" y="2" width="536" height="60">
<path fill-rule="evenodd" clip-rule="evenodd" d="M13.2493 2.00098C12.1394 2.00896 4.44844 2.24734 4 7.17465L4.24256 55.8283C4.24256 55.8283 4.96433 61.001 14.5875 61.001H130.063H539.759L494.168 31.5L540 2.00098H13.2493Z" fill="white"/>
</mask>
<g mask="url(#mask0)">
<path fill-rule="evenodd" clip-rule="evenodd" d="M13.2493 2.00098C12.1394 2.00896 4.44844 2.24734 4 7.17465L4.24256 55.8283C4.24256 55.8283 4.96433 61.001 14.5875 61.001H130.063H539.759L494.168 31.5L540 2.00098H13.2493Z" fill="#6E61F5"/>
</g>
<path d="M21.722 20.4283L28.9545 18.1036V46.0002H32.1402V14.4873H28.9545L21.722 18.1466V20.4283ZM38.6109 39.0261C38.6109 44.1921 42.098 46.0002 46.0156 46.0002H53.0758C57.3378 46.0002 60.2652 44.1491 60.2652 39.0261V21.4615C60.2652 17.7592 58.328 14.4873 53.0758 14.4873H46.0156C41.9258 14.4873 38.6109 16.8121 38.6109 21.4615V39.0261ZM41.7966 39.0261V21.4615C41.7966 19.3951 43.002 17.6731 46.0156 17.6731H53.0758C56.2616 17.6731 57.0795 19.4812 57.0795 21.4615V39.0261C57.0795 41.3508 55.8311 42.8145 53.0758 42.8145H46.0156C43.9491 42.8145 41.7966 41.9105 41.7966 39.0261ZM66.2741 39.0261C66.2741 44.1921 69.7612 46.0002 73.6788 46.0002H80.7391C85.0011 46.0002 87.9285 44.1491 87.9285 39.0261V21.4615C87.9285 17.7592 85.9912 14.4873 80.7391 14.4873H73.6788C69.589 14.4873 66.2741 16.8121 66.2741 21.4615V39.0261ZM69.4599 39.0261V21.4615C69.4599 19.3951 70.6653 17.6731 73.6788 17.6731H80.7391C83.9248 17.6731 84.7428 19.4812 84.7428 21.4615V39.0261C84.7428 41.3508 83.4943 42.8145 80.7391 42.8145H73.6788C71.6124 42.8145 69.4599 41.9105 69.4599 39.0261ZM92.732 25.5944C92.732 29.2536 93.9804 30.9757 98.1994 30.9757H102.547C106.896 30.9757 108.101 29.2536 108.101 25.5944V19.8686C108.101 16.2094 106.852 14.4873 102.634 14.4873H98.2855C93.9374 14.4873 92.732 16.2094 92.732 19.8686V25.5944ZM95.5302 25.5944V19.8686C95.5302 17.9314 95.7885 17.2856 98.2855 17.2856H102.634C104.657 17.2856 105.303 17.7592 105.303 19.8686V25.5944C105.303 27.5316 105.044 28.1774 102.547 28.1774H98.1994C96.176 28.1774 95.5302 27.7038 95.5302 25.5944ZM100.696 46.0002H103.753L122.609 14.4873H119.552L100.696 46.0002ZM114.86 40.5328C114.86 44.1921 116.108 45.9141 120.327 45.9141H124.675C129.023 45.9141 130.229 44.1921 130.229 40.5328V34.8071C130.229 31.1479 128.98 29.4258 124.761 29.4258H120.413C116.065 29.4258 114.86 31.1479 114.86 34.8071V40.5328ZM117.658 40.5328V34.8071C117.658 32.8699 117.916 32.2241 120.413 32.2241H124.761C126.785 32.2241 127.431 32.6977 127.431 34.8071V40.5328C127.431 42.4701 127.172 43.1159 124.675 43.1159H120.327C118.304 43.1159 117.658 42.6423 117.658 40.5328Z" fill="white"/>
<path d="M149.44 26.0002H154.336C157.81 26.0002 159.016 22.4542 159.016 19.4662C159.016 16.7662 158.386 12.8242 154.336 12.8242H149.44V26.0002ZM150.772 24.6142V14.1562H154.336C156.424 14.1562 157.684 15.5962 157.684 19.4482C157.684 22.2202 156.712 24.6142 154.336 24.6142H150.772ZM161.013 23.7862C161.013 25.8202 162.273 26.1262 163.461 26.0542L168.969 25.7482V24.7222H163.461C162.939 24.7222 162.363 24.7402 162.345 23.7862V20.1862L168.249 20.0062V18.9442L162.345 18.7642V15.1642C162.345 14.6782 162.345 14.1562 163.281 14.1562H168.969V13.1122L163.281 12.8242C162.075 12.7702 161.013 13.4002 161.013 15.1642V23.7862ZM175.466 19.3402C175.466 23.1562 176.024 26.1262 179.75 26.0902C181.37 26.0902 182.558 25.4962 183.242 25.1182L183.53 26.0002H184.538V19.0522C184.106 19.0162 183.692 18.9982 183.314 18.9982C181.856 18.9982 180.902 19.2502 180.182 19.4482V20.3482H183.206V23.9482C183.206 23.9482 181.118 24.7942 179.75 24.7762C177.536 24.7402 176.798 23.3722 176.798 19.3762C176.798 15.7402 177.302 14.0122 179.678 14.0122C181.46 14.0122 184.142 14.2282 184.25 14.2282V13.1662C182.99 12.9322 180.614 12.6802 179.678 12.6802C176.096 12.6802 175.466 15.7402 175.466 19.3402ZM186.437 26.0002H188.075L189.263 22.3282H194.519L195.653 26.0002H197.237L192.611 12.8242H191.279L186.437 26.0002ZM189.749 20.9962L191.927 14.8582L194.051 20.9962H189.749ZM198.86 26.0002H200.192V20.3662L203.792 20.6182L206.564 26.0002H208.004L205.232 20.5642C205.736 20.4922 207.518 20.2042 207.518 16.7842C207.518 13.7962 206.186 12.8242 204.476 12.8242H198.86V26.0002ZM200.192 19.1782V14.1742H204.476C205.268 14.1742 206.168 14.4262 206.168 16.7842C206.168 19.1782 205.304 19.1782 204.476 19.1782H200.192ZM209.355 26.0002H210.993L212.181 22.3282H217.437L218.571 26.0002H220.155L215.529 12.8242H214.197L209.355 26.0002ZM212.667 20.9962L214.845 14.8582L216.969 20.9962H212.667ZM222.138 26.0002H223.488V15.3082L230.526 26.0002H231.858V12.8242H230.526V23.5162L223.506 12.8242H222.138V26.0002ZM233.837 14.1562H237.689V26.0002H239.021V14.1562H242.981V12.8242H233.837V14.1562ZM245.004 11.6542H246.246L248.64 9.26024H246.93L245.004 11.6542ZM244.968 26.0002H246.3V12.8242H244.968V26.0002ZM248.283 26.0002H249.921L251.109 22.3282H256.365L257.499 26.0002H259.083L254.457 12.8242H253.125L248.283 26.0002ZM251.595 20.9962L253.773 14.8582L255.897 20.9962H251.595ZM265.661 26.0002H270.557C274.031 26.0002 275.237 22.4542 275.237 19.4662C275.237 16.7662 274.607 12.8242 270.557 12.8242H265.661V26.0002ZM266.993 24.6142V14.1562H270.557C272.645 14.1562 273.905 15.5962 273.905 19.4482C273.905 22.2202 272.933 24.6142 270.557 24.6142H266.993ZM277.234 23.7862C277.234 25.8202 278.494 26.1262 279.682 26.0542L285.19 25.7482V24.7222H279.682C279.16 24.7222 278.584 24.7402 278.566 23.7862V20.1862L284.47 20.0062V18.9442L278.566 18.7642V15.1642C278.566 14.6782 278.566 14.1562 279.502 14.1562H285.19V13.1122L279.502 12.8242C278.296 12.7702 277.234 13.4002 277.234 15.1642V23.7862ZM291.506 26.0002H293.144L294.332 22.3282H299.588L300.722 26.0002H302.306L297.68 12.8242H296.348L291.506 26.0002ZM294.818 20.9962L296.996 14.8582L299.12 20.9962H294.818ZM303.93 26.0002H305.262V20.2762C305.352 20.3302 308.628 20.6362 309.348 20.6362C310.68 20.6362 312.498 20.4022 312.498 16.6402C312.498 13.4182 310.77 12.8242 309.348 12.8242H303.93V26.0002ZM305.262 19.3042V14.1742H309.348C309.978 14.1742 311.112 14.2822 311.148 16.6402C311.148 19.0342 310.284 19.3042 309.348 19.3042H305.262ZM314.483 26.0002H315.815V20.3662L319.415 20.6182L322.187 26.0002H323.627L320.855 20.5642C321.359 20.4922 323.141 20.2042 323.141 16.7842C323.141 13.7962 321.809 12.8242 320.099 12.8242H314.483V26.0002ZM315.815 19.1782V14.1742H320.099C320.891 14.1742 321.791 14.4262 321.791 16.7842C321.791 19.1782 320.927 19.1782 320.099 19.1782H315.815ZM324.987 19.5022C324.987 25.4962 326.859 26.0722 330.099 26.0722C333.339 26.0722 335.175 25.3162 335.175 19.5022C335.175 13.3282 333.213 12.7342 330.099 12.7342C327.075 12.7342 324.987 13.3282 324.987 19.5022ZM326.319 19.5022C326.319 14.1202 327.705 14.0662 330.099 14.0662C332.547 14.0662 333.843 14.1202 333.843 19.5022C333.843 23.9842 332.907 24.7402 330.099 24.7402C327.255 24.7402 326.319 24.1282 326.319 19.5022ZM337.515 26.0002H342.591C345.363 26.0002 346.083 24.1642 346.083 22.3282C346.083 20.2762 345.147 19.3402 344.355 19.1602C345.633 18.7642 346.011 17.5762 346.011 16.2442C346.011 14.7682 345.219 12.8242 342.591 12.8242H337.515V26.0002ZM338.865 24.6682V19.7722H342.591C344.103 19.7722 344.751 20.9602 344.751 22.2922C344.751 24.4342 343.455 24.6682 342.591 24.6682H338.865ZM338.865 18.4402V14.1562H342.591C343.527 14.1562 344.679 14.4982 344.679 16.2442C344.679 17.7202 343.941 18.4402 342.591 18.4402H338.865ZM347.158 26.0002H348.796L349.984 22.3282H355.24L356.374 26.0002H357.958L353.332 12.8242H352L347.158 26.0002ZM350.47 20.9962L352.648 14.8582L354.772 20.9962H350.47ZM358.77 19.3762C358.77 23.2462 359.832 26.1082 363.162 26.1082C364.098 26.1082 366.294 25.9462 367.554 25.7122V24.6502C367.554 24.6502 365.052 24.7762 363.162 24.7762C360.768 24.7762 360.102 22.3642 360.102 19.4122C360.102 15.0382 360.912 14.0122 363.162 14.0122C364.818 14.0122 367.536 14.1922 367.554 14.1922V13.1302C366.294 12.8962 364.098 12.6802 363.162 12.6802C359.58 12.6802 358.77 15.1642 358.77 19.3762ZM369.721 26.0002H371.053V12.8242H369.721V26.0002ZM377.878 11.6542H379.12L381.514 9.26024H379.804L377.878 11.6542ZM373.396 19.5022C373.396 25.4962 375.268 26.0722 378.508 26.0722C381.748 26.0722 383.584 25.3162 383.584 19.5022C383.584 13.3282 381.622 12.7342 378.508 12.7342C375.484 12.7342 373.396 13.3282 373.396 19.5022ZM374.728 19.5022C374.728 14.1202 376.114 14.0662 378.508 14.0662C380.956 14.0662 382.252 14.1202 382.252 19.5022C382.252 23.9842 381.316 24.7402 378.508 24.7402C375.664 24.7402 374.728 24.1282 374.728 19.5022ZM385.925 26.0002H387.275V15.3082L394.313 26.0002H395.645V12.8242H394.313V23.5162L387.293 12.8242H385.925V26.0002ZM402.848 23.7862C402.848 25.8202 404.108 26.1262 405.296 26.0542L410.804 25.7482V24.7222H405.296C404.774 24.7222 404.198 24.7402 404.18 23.7862V20.1862L410.084 20.0062V18.9442L404.18 18.7642V15.1642C404.18 14.6782 404.18 14.1562 405.116 14.1562H410.804V13.1122L405.116 12.8242C403.91 12.7702 402.848 13.4002 402.848 15.1642V23.7862ZM413.156 26.0002H414.506V15.3082L421.544 26.0002H422.876V12.8242H421.544V23.5162L414.524 12.8242H413.156V26.0002ZM149.44 47.7862C149.44 49.8202 150.7 50.1262 151.888 50.0542L157.396 49.7482V48.7222H151.888C151.366 48.7222 150.79 48.7402 150.772 47.7862V44.1862L156.676 44.0062V42.9442L150.772 42.7642V39.1642C150.772 38.6782 150.772 38.1562 151.708 38.1562H157.396V37.1122L151.708 36.8242C150.502 36.7702 149.44 37.4002 149.44 39.1642V47.7862ZM159.748 47.7322C159.748 49.7662 161.008 50.0002 162.196 50.0002H167.704V48.6682H162.196C161.674 48.6682 161.08 48.6862 161.08 47.7322V36.8242H159.748V47.7322ZM173.827 38.1562H177.679V50.0002H179.011V38.1562H182.971V36.8242H173.827V38.1562ZM184.598 50.0002H185.93V44.3662L189.53 44.6182L192.302 50.0002H193.742L190.97 44.5642C191.474 44.4922 193.256 44.2042 193.256 40.7842C193.256 37.7962 191.924 36.8242 190.214 36.8242H184.598V50.0002ZM185.93 43.1782V38.1742H190.214C191.006 38.1742 191.906 38.4262 191.906 40.7842C191.906 43.1782 191.042 43.1782 190.214 43.1782H185.93ZM195.722 50.0002H197.054V36.8242H195.722V50.0002ZM199.667 50.0002H204.743C207.515 50.0002 208.235 48.1642 208.235 46.3282C208.235 44.2762 207.299 43.3402 206.507 43.1602C207.785 42.7642 208.163 41.5762 208.163 40.2442C208.163 38.7682 207.371 36.8242 204.743 36.8242H199.667V50.0002ZM201.017 48.6682V43.7722H204.743C206.255 43.7722 206.903 44.9602 206.903 46.2922C206.903 48.4342 205.607 48.6682 204.743 48.6682H201.017ZM201.017 42.4402V38.1562H204.743C205.679 38.1562 206.831 38.4982 206.831 40.2442C206.831 41.7202 206.093 42.4402 204.743 42.4402H201.017ZM210.484 44.2402C210.484 50.2342 212.914 50.0902 215.362 50.0902C217.54 50.0902 220.15 50.0542 220.15 44.2402V36.8242H218.8V44.2402C218.8 48.7222 217.144 48.7582 215.362 48.7582C213.256 48.7582 211.816 48.8662 211.816 44.2402V36.8242H210.484V44.2402ZM222.76 50.0002H224.11V39.3082L231.148 50.0002H232.48V36.8242H231.148V47.5162L224.128 36.8242H222.76V50.0002ZM234.46 50.0002H236.098L237.286 46.3282H242.542L243.676 50.0002H245.26L240.634 36.8242H239.302L234.46 50.0002ZM237.772 44.9962L239.95 38.8582L242.074 44.9962H237.772ZM247.243 47.7322C247.243 49.7662 248.503 50.0002 249.691 50.0002H255.199V48.6682H249.691C249.169 48.6682 248.575 48.6862 248.575 47.7322V36.8242H247.243V47.7322Z" fill="white"/>
<path d="M269.9 45.356C269.9 48.776 270.89 50.09 274.112 50.09C277.334 50.09 278.324 48.902 278.324 45.356C278.324 41.558 277.334 40.352 274.112 40.352C270.98 40.352 269.9 41.45 269.9 45.356ZM271.232 45.356C271.232 41.918 272.096 41.684 274.112 41.684C276.218 41.684 276.992 41.936 276.992 45.356C276.992 48.506 276.056 48.758 274.112 48.758C272.258 48.758 271.232 48.542 271.232 45.356ZM285 46.598C285 49.136 285.99 50 287.376 50H288.96V49.046C288.834 49.046 287.358 48.668 287.358 48.668C286.746 48.524 286.332 48.164 286.332 46.598V35.906H285V46.598ZM289.415 45.176C289.415 48.92 290.135 50.09 292.565 50.09C294.059 50.09 295.607 50 297.065 49.586V48.578C295.715 48.776 294.221 48.758 292.565 48.758C291.161 48.758 290.747 48.2 290.747 45.95H294.779C296.507 45.95 297.245 45.14 297.245 43.754C297.245 40.586 295.841 40.37 293.591 40.37C290.639 40.37 289.415 40.91 289.415 45.176ZM290.747 44.636C290.747 41.72 291.575 41.702 293.609 41.702C295.553 41.702 295.913 41.864 295.913 43.754C295.913 44.348 295.571 44.636 294.779 44.636H290.747ZM303.561 45.266C303.561 47.462 304.101 50.108 306.711 50.108C307.935 50.108 309.771 49.28 310.239 48.938L310.599 50H311.553V35.87H310.239V41.018C309.087 40.55 307.521 40.298 306.711 40.298C303.993 40.298 303.561 42.818 303.561 45.266ZM304.893 45.266C304.893 42.332 305.559 41.63 306.711 41.63C308.097 41.63 308.997 41.774 310.239 42.098V47.948C309.267 48.344 308.133 48.776 306.711 48.776C305.541 48.776 304.893 47.606 304.893 45.266ZM313.623 45.176C313.623 48.92 314.343 50.09 316.773 50.09C318.267 50.09 319.815 50 321.273 49.586V48.578C319.923 48.776 318.429 48.758 316.773 48.758C315.369 48.758 314.955 48.2 314.955 45.95H318.987C320.715 45.95 321.453 45.14 321.453 43.754C321.453 40.586 320.049 40.37 317.799 40.37C314.847 40.37 313.623 40.91 313.623 45.176ZM314.955 44.636C314.955 41.72 315.783 41.702 317.817 41.702C319.761 41.702 320.121 41.864 320.121 43.754C320.121 44.348 319.779 44.636 318.987 44.636H314.955ZM322.459 40.442L326.221 50H327.553L331.387 40.442H329.929L326.905 48.038L323.917 40.442H322.459ZM332.392 45.356C332.392 48.776 333.382 50.09 336.604 50.09C339.826 50.09 340.816 48.902 340.816 45.356C340.816 41.558 339.826 40.352 336.604 40.352C333.472 40.352 332.392 41.45 332.392 45.356ZM333.724 45.356C333.724 41.918 334.588 41.684 336.604 41.684C338.71 41.684 339.484 41.936 339.484 45.356C339.484 48.506 338.548 48.758 336.604 48.758C334.75 48.758 333.724 48.542 333.724 45.356ZM342.897 46.598C342.897 49.136 343.887 50 345.273 50H346.857V49.046C346.731 49.046 345.255 48.668 345.255 48.668C344.643 48.524 344.229 48.164 344.229 46.598V35.906H342.897V46.598ZM346.772 40.442L350.534 50H351.866L355.7 40.442H354.242L351.218 48.038L348.23 40.442H346.772ZM356.706 45.176C356.706 48.92 357.426 50.09 359.856 50.09C361.35 50.09 362.898 50 364.356 49.586V48.578C363.006 48.776 361.512 48.758 359.856 48.758C358.452 48.758 358.038 48.2 358.038 45.95H362.07C363.798 45.95 364.536 45.14 364.536 43.754C364.536 40.586 363.132 40.37 360.882 40.37C357.93 40.37 356.706 40.91 356.706 45.176ZM358.038 44.636C358.038 41.72 358.866 41.702 360.9 41.702C362.844 41.702 363.204 41.864 363.204 43.754C363.204 44.348 362.862 44.636 362.07 44.636H358.038ZM366.438 50H367.77V42.674C369.156 42.008 369.786 41.666 371.172 41.666C372.108 41.666 372.81 42.35 372.81 43.412V50H374.142V43.376V42.674C375.33 41.9 376.248 41.666 377.67 41.666C378.606 41.666 379.29 42.35 379.29 43.412V50H380.622V43.412C380.622 41.576 379.326 40.334 377.67 40.334C376.068 40.334 374.754 40.964 373.818 41.738C373.404 40.856 372.342 40.334 371.172 40.334C369.75 40.334 368.868 40.964 367.77 41.594L367.374 40.442H366.438V50ZM382.348 45.356C382.348 48.776 383.338 50.09 386.56 50.09C389.782 50.09 390.772 48.902 390.772 45.356C390.772 41.558 389.782 40.352 386.56 40.352C383.428 40.352 382.348 41.45 382.348 45.356ZM383.68 45.356C383.68 41.918 384.544 41.684 386.56 41.684C388.666 41.684 389.44 41.936 389.44 45.356C389.44 48.506 388.504 48.758 386.56 48.758C384.706 48.758 383.68 48.542 383.68 45.356ZM392.23 43.556C392.23 45.41 393.022 45.914 394.714 45.914H397.558C398.35 45.914 398.566 46.274 398.566 46.904V47.786C398.566 48.866 397.558 48.758 397.558 48.758H392.626V49.748C393.31 49.82 396.676 50.09 397.558 50.09C398.71 50.09 399.898 49.748 399.898 47.786V46.904C399.898 45.554 399.124 44.582 397.558 44.582H394.714C394.048 44.582 393.562 44.546 393.562 43.556V42.728C393.562 42.116 393.562 41.666 394.714 41.666H399.412V40.64C398.476 40.55 395.65 40.352 394.714 40.352C392.86 40.352 392.23 41.252 392.23 42.728V43.556ZM406.025 43.556C406.025 45.41 406.817 45.914 408.509 45.914H411.353C412.145 45.914 412.361 46.274 412.361 46.904V47.786C412.361 48.866 411.353 48.758 411.353 48.758H406.421V49.748C407.105 49.82 410.471 50.09 411.353 50.09C412.505 50.09 413.693 49.748 413.693 47.786V46.904C413.693 45.554 412.919 44.582 411.353 44.582H408.509C407.843 44.582 407.357 44.546 407.357 43.556V42.728C407.357 42.116 407.357 41.666 408.509 41.666H413.207V40.64C412.271 40.55 409.445 40.352 408.509 40.352C406.655 40.352 406.025 41.252 406.025 42.728V43.556ZM415.405 47.102C415.405 48.686 416.449 50.162 418.357 50.162C419.815 50.162 420.787 49.514 421.885 48.884L422.281 50H423.217V40.442H421.885V47.804C420.499 48.47 419.797 48.83 418.357 48.83C417.439 48.83 416.737 48.29 416.737 47.102V40.442H415.405V47.102ZM429.886 45.266C429.886 47.462 430.426 50.108 433.036 50.108C434.26 50.108 436.096 49.28 436.564 48.938L436.924 50H437.878V35.87H436.564V41.018C435.412 40.55 433.846 40.298 433.036 40.298C430.318 40.298 429.886 42.818 429.886 45.266ZM431.218 45.266C431.218 42.332 431.884 41.63 433.036 41.63C434.422 41.63 435.322 41.774 436.564 42.098V47.948C435.592 48.344 434.458 48.776 433.036 48.776C431.866 48.776 431.218 47.606 431.218 45.266ZM439.947 38.894C439.947 39.146 440.127 39.308 440.379 39.308H441.279C441.531 39.308 441.693 39.164 441.693 38.894V37.922C441.693 37.67 441.549 37.472 441.279 37.472H440.379C440.091 37.472 439.947 37.652 439.947 37.922V38.894ZM440.127 50H441.459V40.442H440.127V50ZM443.773 50H445.105V42.638C446.491 41.972 447.193 41.612 448.633 41.612C449.551 41.612 450.253 42.152 450.253 43.34V50H451.585V43.34C451.585 41.756 450.541 40.28 448.633 40.28C447.175 40.28 446.203 40.928 445.105 41.558L444.709 40.442H443.773V50ZM453.303 45.176C453.303 48.92 454.023 50.09 456.453 50.09C457.947 50.09 459.495 50 460.953 49.586V48.578C459.603 48.776 458.109 48.758 456.453 48.758C455.049 48.758 454.635 48.2 454.635 45.95H458.667C460.395 45.95 461.133 45.14 461.133 43.754C461.133 40.586 459.729 40.37 457.479 40.37C454.527 40.37 453.303 40.91 453.303 45.176ZM454.635 44.636C454.635 41.72 455.463 41.702 457.497 41.702C459.441 41.702 459.801 41.864 459.801 43.754C459.801 44.348 459.459 44.636 458.667 44.636H454.635ZM463.034 50H464.366V42.728C465.752 42.062 466.49 41.684 467.93 41.684C468.452 41.684 469.046 41.738 469.262 41.792V40.478C469.046 40.37 468.452 40.334 467.93 40.334C466.454 40.334 465.464 41.018 464.366 41.648L463.97 40.442H463.034V50ZM470.262 45.356C470.262 48.776 471.252 50.09 474.474 50.09C477.696 50.09 478.686 48.902 478.686 45.356C478.686 41.558 477.696 40.352 474.474 40.352C471.342 40.352 470.262 41.45 470.262 45.356ZM471.594 45.356C471.594 41.918 472.458 41.684 474.474 41.684C476.58 41.684 477.354 41.936 477.354 45.356C477.354 48.506 476.418 48.758 474.474 48.758C472.62 48.758 471.594 48.542 471.594 45.356Z" fill="white"/>
<path d="M137.506 9.06372V54.0887" stroke="white" stroke-width="2"/>
</g>
<defs>
<filter id="filter0_d" x="0" y="0.000976562" width="544" height="67" filterUnits="userSpaceOnUse" color-interpolation-filters="sRGB">
<feFlood flood-opacity="0" result="BackgroundImageFix"/>
<feColorMatrix in="SourceAlpha" type="matrix" values="0 0 0 0 0 0 0 0 0 0 0 0 0 0 0 0 0 0 127 0"/>
<feOffset dy="2"/>
<feGaussianBlur stdDeviation="2"/>
<feColorMatrix type="matrix" values="0 0 0 0 0 0 0 0 0 0 0 0 0 0 0 0 0 0 0.5 0"/>
<feBlend mode="normal" in2="BackgroundImageFix" result="effect1_dropShadow"/>
<feBlend mode="normal" in="SourceGraphic" in2="effect1_dropShadow" result="shape"/>
</filter>
</defs>
</svg>
