<svg width="76" height="24" viewBox="0 0 76 24" fill="none" xmlns="http://www.w3.org/2000/svg">
<path fill-rule="evenodd" clip-rule="evenodd" d="M28.8944 0.874222H14.2718V0.874909H0.608551V23.6474H14.271V18.6084C14.271 18.6084 14.2618 18.6084 14.2618 18.6176C14.233 18.5995 14.2011 18.5868 14.1676 18.5801C14.1522 18.5801 14.135 18.5787 14.1149 18.577C14.0865 18.5747 14.052 18.5718 14.0079 18.5718C13.9702 18.5718 13.9357 18.5745 13.9061 18.5768C13.8838 18.5786 13.8642 18.5801 13.8481 18.5801L13.8426 18.5816C13.807 18.5906 13.771 18.5998 13.7351 18.6176C12.8864 16.7938 12.0018 14.9867 11.0819 13.1971C10.1672 11.4354 9.22612 9.68731 8.25882 7.95342L7.63796 13.8399C7.55306 14.6408 7.48748 15.4326 7.4404 16.2148C7.39332 17.0161 7.3555 17.8079 7.33659 18.6176C7.18155 18.5832 7.03396 18.5646 6.90159 18.548C6.88968 18.5465 6.87788 18.545 6.86622 18.5435C6.71573 18.5248 6.5745 18.5156 6.43327 18.5156C6.31449 18.5156 6.19571 18.5234 6.06983 18.5317C6.05627 18.5326 6.04262 18.5335 6.02888 18.5343C5.88805 18.5523 5.72791 18.5801 5.55851 18.6176C6.05705 16.0746 6.49 13.579 6.83805 11.1014C7.18923 8.68809 7.47167 6.26549 7.68504 3.83647H8.49421C9.61401 6.05326 10.6586 8.12069 11.6653 10.0209C12.5129 11.6526 13.3819 13.2735 14.2718 14.883V14.8823C14.3471 15.0313 14.4223 15.171 14.5068 15.3108C15.5009 13.5125 16.4671 11.6992 17.4051 9.87161C18.4277 7.87064 19.4284 5.85871 20.4068 3.83618H21.2252C21.4367 6.35492 21.6909 8.86997 21.9877 11.3803C22.2721 13.7987 22.6047 16.2114 22.9852 18.6169C22.7687 18.5607 22.5619 18.5241 22.3546 18.4962C22.1567 18.4588 21.9499 18.4496 21.7523 18.4496C21.563 18.4473 21.374 18.4629 21.1878 18.4962C20.9664 18.5263 20.7466 18.5665 20.5291 18.6169C20.4631 16.8474 20.3408 15.0778 20.1714 13.2804C20.0116 11.4826 19.7859 9.65694 19.5224 7.81294L16.4547 13.7739C16.0009 14.6517 15.568 15.54 15.1562 16.4379C14.8082 17.2198 14.5068 17.9366 14.2718 18.6073V23.6463H28.8944V18.8778C27.3135 18.738 26.0528 18.1971 25.0835 17.2568C23.9637 16.1484 23.3992 14.6489 23.3992 12.7213C23.3992 10.8303 23.9919 9.33115 25.1777 8.23192C26.1281 7.35652 27.3702 6.82562 28.8944 6.65794V0.874222ZM14.2718 14.8823V0.874909H14.2718V14.8823C14.2718 14.8823 14.2718 14.8823 14.2718 14.8823ZM28.8944 0.874222H34.1357V7.42183C33.4673 7.16096 32.8276 6.95625 32.1975 6.82562C31.4931 6.67022 30.7736 6.59222 30.052 6.59303C29.6651 6.59048 29.2785 6.61229 28.8944 6.65834V0.874222ZM40.2803 0.874222H34.136V7.42223L34.1361 7.42227C34.2206 7.45929 34.3051 7.49632 34.3992 7.53375C34.293 7.73684 34.2049 7.94873 34.1361 8.167V16.3069L34.136 16.3069V8.16709C34.1251 8.19398 34.1174 8.22087 34.1092 8.24952L34.1092 8.24958L34.1092 8.24963L34.1092 8.24966C34.1032 8.27059 34.097 8.29246 34.089 8.31596C34.0137 8.6047 33.9478 8.92133 33.9007 9.2754H33.7031C33.308 8.62342 32.7998 8.14828 32.1978 7.83166C31.5955 7.51503 30.8805 7.35652 30.0524 7.35652C29.6384 7.35652 29.2525 7.40311 28.8948 7.47759V17.8996C29.2807 17.9928 29.6854 18.0398 30.1272 18.0398C30.8612 18.0398 31.548 17.8904 32.1882 17.6017C32.8372 17.3129 33.4488 16.8657 34.0323 16.2607L34.1361 16.3073V16.3069L34.2394 16.3535C34.1924 16.5303 34.1642 16.6984 34.136 16.8748V18.0581C35.1281 15.9078 36.1035 13.7501 37.0621 11.585C38.0853 9.28392 39.136 6.83697 40.2414 4.2626L40.2417 4.26169L40.242 4.26103L40.2427 4.25938L40.2806 4.17113V4.16993C40.328 4.05868 40.375 3.94703 40.4211 3.83538L40.4676 3.84385C40.5535 3.85955 40.6337 3.87421 40.7136 3.88198L40.7237 3.88307C40.8045 3.89189 40.8853 3.9007 40.9486 3.9007C41.0366 3.89902 41.1245 3.89277 41.2118 3.88198C41.2942 3.872 41.3758 3.85643 41.456 3.83538C42.4445 6.32278 43.4579 8.80042 44.4959 11.268C45.5405 13.7281 46.6102 16.1778 47.7048 18.6165C47.4228 18.5791 47.1689 18.5603 46.9238 18.5424C46.6984 18.5242 46.4724 18.5149 46.2462 18.5145C46.0302 18.5145 45.8133 18.5237 45.5783 18.5424L45.5528 18.5445C45.343 18.5618 45.1165 18.5805 44.8725 18.6165C44.5623 17.5921 44.2424 16.6331 43.9226 15.7294C43.5934 14.8166 43.2631 13.9412 42.915 13.1215C42.5114 13.0936 42.097 13.0753 41.683 13.0658C41.2685 13.0566 40.8452 13.0474 40.4215 13.0474H40.2807V23.6475H51.2899V12.7965H51.29V23.6475H59.0525V18.6177H59.0528V23.6475H66.8247V18.6177C66.3076 18.6177 65.7898 18.6177 65.253 18.6269C64.715 18.6354 64.1607 18.6524 63.5894 18.67L63.5893 18.67L63.589 18.67L63.5888 18.67L63.5885 18.67L63.4753 18.6735C63.553 17.7557 63.6124 16.8366 63.6536 15.9166C63.6914 14.9476 63.7103 13.8858 63.7103 12.7404C63.7103 11.4643 63.691 10.3555 63.6536 9.39647C63.6162 8.43743 63.5594 7.57119 63.4753 6.78858L65.2257 6.81646C65.7615 6.82601 66.2981 6.83517 66.8247 6.83518V0.874222H59.0529H59.0528V6.83518H59.1466C59.4325 6.83518 59.7136 6.83283 59.9911 6.83051L59.9913 6.83051C60.2617 6.82825 60.5286 6.82602 60.7931 6.82602C61.3207 6.81646 61.8377 6.79814 62.3366 6.77942C62.3187 6.87682 62.3091 6.97387 62.3003 7.06309L62.2988 7.07773C62.2896 7.18008 62.2896 7.27328 62.2896 7.37563C62.2896 7.46883 62.2896 7.57158 62.2988 7.67394L62.3023 7.71132C62.3108 7.80295 62.32 7.90134 62.3366 7.99973C61.8803 7.90067 61.4184 7.82912 60.9533 7.78546C60.4636 7.7293 59.9373 7.71058 59.3627 7.71058H59.0529V7.71047H57.6981V11.9298H59.0525V11.9299H59.5233C59.9091 11.9299 60.3039 11.9203 60.7179 11.8925C61.1035 11.8754 61.5138 11.8338 61.9408 11.7905L62.0357 11.7809C62.0168 11.902 62.0075 11.9952 62.0075 12.0697C62.0075 12.1127 62.0051 12.1533 62.0027 12.1927L62.0027 12.1929C62.0004 12.23 61.9982 12.2662 61.9982 12.3023C61.9982 12.4138 62.0075 12.6002 62.0264 12.8519V12.9451C61.8912 12.9343 61.7601 12.9235 61.6332 12.9131L61.6332 12.9131C61.2118 12.8784 60.8367 12.8476 60.5111 12.8332C60.0878 12.8049 59.7393 12.7957 59.4762 12.7957H59.0529V12.7955H57.6981V14.6399C57.6981 15.0015 57.706 15.4269 57.7148 15.9014L57.717 16.0183C57.725 16.4825 57.7401 16.9682 57.7562 17.4861L57.7562 17.4864L57.7641 17.7412H59.0525V17.7415H59.4195C59.9091 17.7415 60.398 17.7132 60.897 17.6666C61.3959 17.62 61.894 17.5451 62.4026 17.4527C62.3837 17.5276 62.3745 17.6013 62.3745 17.6853C62.3652 17.7785 62.3652 17.8992 62.3652 18.0673C62.3652 18.2437 62.3652 18.3743 62.3745 18.4492C62.3791 18.4894 62.3815 18.5273 62.3838 18.5631L62.3838 18.5633L62.3838 18.5634L62.3838 18.5635L62.3838 18.5637C62.3863 18.6025 62.3886 18.6387 62.3934 18.6727C61.8944 18.6539 61.3766 18.6352 60.8406 18.6261C60.3131 18.6169 59.7582 18.6169 59.1941 18.6169H59.0525V18.6177C58.544 18.6177 58.0178 18.6177 57.4904 18.6269C56.9264 18.6357 56.3534 18.6535 55.771 18.6716H55.7709L55.7119 18.6735C55.7914 17.756 55.848 16.8368 55.8817 15.9166C55.9196 14.9476 55.9385 13.8858 55.9385 12.7404C55.9413 11.6255 55.9223 10.5106 55.8817 9.39647C55.8536 8.43743 55.7968 7.57119 55.7119 6.78858L57.4534 6.81646C57.9989 6.82601 58.5355 6.83517 59.0525 6.83518V0.874222H51.29V6.83518H51.4303C51.7222 6.83518 52.0065 6.83281 52.286 6.83048H52.286H52.2861H52.2862H52.2862H52.2863H52.2864H52.2864H52.2865H52.2865H52.2866H52.2866H52.2867H52.2868H52.2868C52.5572 6.82823 52.8231 6.82602 53.0869 6.82602L53.1238 6.82535C53.6378 6.81602 54.1431 6.80686 54.6296 6.78858C54.6106 6.89133 54.601 6.99369 54.5925 7.08689C54.5833 7.18008 54.5833 7.28284 54.5833 7.38519C54.5833 7.46883 54.5833 7.57158 54.6014 7.67394L54.6296 7.99973C54.1314 7.90653 53.6321 7.83206 53.1339 7.78546C52.635 7.7293 52.1453 7.71058 51.6564 7.71058H51.29V7.71047H49.9541L49.9519 7.81178L49.9519 7.81259L49.9518 7.81438C49.9434 8.20538 49.9352 8.58094 49.9352 8.9491V11.9294H51.2895V11.9299H51.7594C52.1582 11.9309 52.557 11.9184 52.9549 11.8925C53.3505 11.8753 53.7622 11.8336 54.19 11.7902L54.2815 11.7809C54.2634 11.902 54.2541 11.9952 54.2541 12.0697C54.2449 12.1533 54.2449 12.2278 54.2449 12.3023C54.2449 12.4138 54.2541 12.6002 54.2722 12.8519V12.9451C54.1206 12.9332 53.9751 12.9212 53.8353 12.9098L53.8353 12.9098C53.4289 12.8765 53.0706 12.8471 52.7485 12.8332C52.3248 12.8049 51.9767 12.7957 51.7039 12.7957H51.2899V12.7965H49.9352V14.6409C49.9352 15.4885 49.9444 16.2332 49.9633 16.9039C49.9708 17.4944 49.9958 18.0845 50.0382 18.6735C49.8973 18.6456 49.7372 18.6173 49.5682 18.6081C49.3984 18.5894 49.2105 18.5894 48.9936 18.5894C48.7872 18.5894 48.5888 18.5894 48.4295 18.6081C48.2635 18.6171 48.1071 18.6443 47.9505 18.6716L47.9504 18.6716L47.9398 18.6735C48.0224 17.7561 48.0821 16.8369 48.1189 15.9166C48.1567 14.9476 48.1756 13.8858 48.1756 12.7404C48.1784 11.6255 48.1595 10.5106 48.1189 9.39647C48.0907 8.43743 48.0247 7.57119 47.9398 6.78858L49.7275 6.81646C50.2549 6.82601 50.781 6.83517 51.2895 6.83518V0.874222H40.2807H40.2806V4.16993L40.2803 4.17073V0.874222ZM51.2895 11.9294V7.71058H51.29V11.9294H51.2895ZM59.0525 17.7412V12.7957H59.0529V17.7412H59.0525ZM59.0525 11.9298H59.0529V7.71058H59.0525V11.9298ZM66.9096 6.83518H66.8251V0.874222H75.8868V23.6467H66.8251V18.6169H66.9667C67.5308 18.6169 68.0772 18.6169 68.6132 18.6261C69.1407 18.6352 69.6577 18.6539 70.1567 18.6727C70.1567 18.6128 70.1489 18.5456 70.1402 18.4701L70.1402 18.47L70.1378 18.4492C70.1378 18.4198 70.1363 18.3819 70.1346 18.3359L70.1346 18.3352C70.1319 18.2642 70.1285 18.1741 70.1285 18.0673C70.1285 17.9709 70.1316 17.8902 70.1341 17.8212C70.1361 17.7699 70.1378 17.7251 70.1378 17.6853C70.1378 17.6013 70.147 17.5276 70.1659 17.4527C69.6573 17.5451 69.1592 17.62 68.6603 17.6666C68.1613 17.7132 67.6724 17.7415 67.1828 17.7415H66.8251V12.7957H67.2391C67.5022 12.7957 67.8507 12.8049 68.2836 12.8332C68.5926 12.8471 68.9542 12.8766 69.3641 12.9101L69.3642 12.9101C69.5036 12.9214 69.6486 12.9333 69.799 12.9451V12.8519C69.7801 12.6002 69.7708 12.4138 69.7708 12.3023V12.0697L69.7775 12.0142C69.7851 11.95 69.7942 11.8737 69.8086 11.7809L69.6329 11.7984C69.2294 11.8388 68.853 11.8764 68.4917 11.8925C68.068 11.9203 67.6729 11.9299 67.287 11.9299H66.8251V7.71058H67.1353C67.7002 7.71058 68.2362 7.7293 68.7259 7.78546C69.1877 7.82909 69.6465 7.90065 70.0995 7.99973C70.0945 7.93838 70.0865 7.87702 70.0787 7.81731C70.0723 7.7681 70.0661 7.72 70.0617 7.67394C70.0525 7.57158 70.0525 7.46883 70.0525 7.37563C70.0525 7.27328 70.0525 7.18008 70.0617 7.07773C70.0661 7.03363 70.0726 6.98749 70.0793 6.94023V6.94017L70.0794 6.94009C70.0868 6.88749 70.0945 6.83351 70.0995 6.77942C69.6006 6.79814 69.0836 6.81646 68.5561 6.82602C68.2916 6.82602 68.0246 6.82825 67.7542 6.83051L67.754 6.83051C67.4766 6.83283 67.1954 6.83518 66.9096 6.83518ZM65.4606 7.71047H66.825V11.9298H65.4606V7.71047ZM66.825 12.7955H65.4606V14.6399C65.4606 15.0011 65.4685 15.426 65.4773 15.8999L65.4773 15.9014L65.4795 16.0183C65.4864 16.2165 65.4921 16.4187 65.4978 16.6256L65.4979 16.6263L65.4979 16.6269L65.4979 16.6274L65.4979 16.6278V16.6282C65.5079 16.9838 65.5182 17.3534 65.5362 17.7412H66.825V12.7955ZM40.2807 12.0789H40.4034C40.7515 12.0789 41.0995 12.0698 41.4383 12.0602C41.7864 12.051 42.1159 12.0323 42.4261 12.014L40.3088 6.74205L40.2807 6.80685V12.0784L40.2807 12.0784V6.80697L38.1349 12.0135L38.1835 12.0158C38.5531 12.0333 38.9225 12.0509 39.2833 12.0597C39.455 12.0645 39.6243 12.0669 39.7924 12.0693L39.7926 12.0693L39.7928 12.0693L39.7929 12.0693L39.793 12.0693L39.7931 12.0693L39.7933 12.0693L39.7934 12.0693C39.9565 12.0716 40.1186 12.0739 40.2807 12.0784V12.0789ZM40.2806 23.6464V13.0471C39.8855 13.0471 39.4807 13.0563 39.076 13.0655C38.606 13.075 38.1352 13.0933 37.6363 13.1212L36.7893 15.3942C36.595 15.9042 36.4162 16.4197 36.2529 16.9403C36.0871 17.4965 35.9303 18.0554 35.7826 18.6166C35.6244 18.5794 35.4641 18.5516 35.3025 18.5334L35.2623 18.531C35.1173 18.5227 34.9788 18.5146 34.8321 18.5146C34.6909 18.5146 34.5404 18.5238 34.3895 18.5334C34.3442 18.5383 34.2987 18.5457 34.2532 18.5532C34.214 18.5596 34.1748 18.566 34.1356 18.5708V18.5708C34.0641 18.5779 33.9929 18.5923 33.9159 18.6078L33.8721 18.6166C33.9597 18.4441 34.0388 18.2705 34.1177 18.0976L34.1178 18.0975L34.1178 18.0974L34.1179 18.0973L34.1179 18.0972L34.1357 18.0583V16.875C34.1282 16.9278 34.1204 16.9744 34.1129 17.02L34.1075 17.0522C34.0789 17.294 34.06 17.5361 34.0508 17.7974C33.345 18.1702 32.6489 18.4585 31.9432 18.6445C31.2282 18.8221 30.5035 18.9145 29.7506 18.9145C29.4497 18.9145 29.1672 18.9058 28.8944 18.8779V23.6464H34.1357V23.6464H40.2806ZM34.1357 23.6464H34.1356V18.5708L34.1357 18.5708V23.6464ZM28.8944 7.47773C28.0004 7.66373 27.2668 8.09227 26.6834 8.76296C25.8738 9.70368 25.4694 10.9985 25.4694 12.6469C25.4694 14.2954 25.8927 15.6089 26.7397 16.5775C27.3232 17.2482 28.0386 17.6954 28.8944 17.8997V7.47773Z" fill="#CC2229"/>
</svg>
